<?xml version="1.0" encoding="utf-8"?>
<!-- Generator: Adobe Illustrator 21.1.0, SVG Export Plug-In . SVG Version: 6.00 Build 0)  -->
<svg version="1.1" id="Calque_1" xmlns="http://www.w3.org/2000/svg" xmlns:xlink="http://www.w3.org/1999/xlink" x="0px" y="0px"
	 viewBox="0 0 48 48" style="enable-background:new 0 0 48 48;" xml:space="preserve">
<style type="text/css">
	.st0{fill:#FFFFFF;}
	.st1{fill:none;}
	.st2{fill:#A4A63C;}
	.st3{font-family:'Quicksand-Regular';}
	.st4{font-size:24px;}
	.st5{font-size:9px;}
</style>
<path class="st0" d="M40,8H8c-2.2,0-4,1.8-4,4l0,24c0,2.2,1.8,4,4,4h32c2.2,0,4-1.8,4-4V12C44,9.8,42.2,8,40,8z M40,16L24,26L8,16
	v-4l16,10l16-10V16z"/>
<path class="st1" d="M0,0h48v48H0V0z"/>
<text transform="matrix(1 0 0 1 3.25 38.9587)" class="st2 st3 st4">@</text>
<text transform="matrix(1 0 0 1 20.625 38.625)" class="st2 st3 st5">news</text>
</svg>
