<svg id="Calque_1" data-name="Calque 1" xmlns="http://www.w3.org/2000/svg" viewBox="0 0 1692.3 1504.3"><defs><style>.cls-1{fill:#afb42b;}.cls-2{fill:#da2119;}.cls-3{fill:#fff;}.cls-4{fill:#a4a63c;}</style></defs><title>V10-Logo</title><g id="Calque_10" data-name="Calque 10"><rect class="cls-1" width="1692.3" height="1504.3"/></g><g id="Oiseaux"><g id="Pate"><path class="cls-2" d="M1126.5,1331.4a4,4,0,0,0,0,5.7h0L1230.4,1448l8.8,9.4,10.8,11.5.7.7.3.3a4,4,0,0,0,5.7-5.7L1154,1354.5l-1-1.1h0l-20.7-22.1a3.63,3.63,0,0,0-2.8-1.2,4.59,4.59,0,0,0-3,1.3Z"/><path class="cls-2" d="M1253.85,1480.07a13,13,0,0,1-9.21-3.81l-1.2-1.2-19.61-20.91L1120,1343.33a13,13,0,0,1,.13-18.29h0a13.59,13.59,0,0,1,8.61-3.91l.75,0a12.7,12.7,0,0,1,9.44,4.12L1263.2,1458a13,13,0,0,1-9.35,22.1Z"/><path class="cls-2" d="M1105.1,1308.6a4.17,4.17,0,0,0,0,5.7l84,89.7a4,4,0,0,0,5.7-5.7l-84-89.7a3.63,3.63,0,0,0-2.8-1.2A4,4,0,0,0,1105.1,1308.6Z"/><path class="cls-2" d="M1192,1414.17a13,13,0,0,1-9.21-3.81l-.21-.21-84-89.7a13.19,13.19,0,0,1,0-18l.21-.21a13,13,0,0,1,9.26-3.83,12.7,12.7,0,0,1,9.44,4.12l83.86,89.55a13,13,0,0,1-9.34,22.1Z"/></g><g id="Calque_de_dessin" data-name="Calque de dessin"><path class="cls-3" d="M502.1,156l-.3.2.6-.2Z"/><polygon class="cls-3" points="498.41 157.86 501.95 155.5 505.48 155.5 498.41 157.86"/><path class="cls-3" d="M680.6,133.5q-29.7,3.15-59,8.9c-19,3.8-37.9,8.5-56.5,13.9A642.18,642.18,0,0,0,354.9,264,644.23,644.23,0,0,0,144.8,548a637.54,637.54,0,0,0-31,113.5,647.85,647.85,0,0,0,2,236,640,640,0,0,0,33.8,115C280.8,1342.6,654.8,1504,985,1372.8a641.31,641.31,0,0,0,152.7-86.4,661.37,661.37,0,0,0,62.1-53.8,636.94,636.94,0,0,0,51.6-57.3,5,5,0,0,0,1.2-2.8,4,4,0,0,0-4-4,3.63,3.63,0,0,0-2.8,1.2,660.94,660.94,0,0,1-48.7,54.4A642.28,642.28,0,0,1,1137,1277c-10.9,8.4-22,16.4-33.3,24.1-10.9,7.4-22.1,14.4-33.4,21.1a629.4,629.4,0,0,1-74.7,37.7c-12.6,5.3-25.3,10.2-38.2,14.7-13.4,4.7-27,8.9-40.7,12.7a636.18,636.18,0,0,1-83,17,647.86,647.86,0,0,1-171.5,0c-13.2-1.8-26.4-4-39.5-6.6-14.3-2.8-28.4-6.2-42.5-10a648,648,0,0,1-79.1-27.3,656.37,656.37,0,0,1-71.7-35.8,643.18,643.18,0,0,1-70.5-47.4c-10.9-8.5-21.6-17.4-32-26.5s-20.5-18.8-30.4-28.7a657.79,657.79,0,0,1-52.3-59.6,647.65,647.65,0,0,1-45.3-67.2,628.57,628.57,0,0,1-37.1-73.8l.1.2c-5.2-12.3-10-24.8-14.5-37.5-4.9-14-9.3-28.3-13.3-42.7a633.92,633.92,0,0,1-16.6-81.8,679.7,679.7,0,0,1-5.7-83.1,652.93,652.93,0,0,1,5.6-87.3l-.1.6c1.9-14.3,4.3-28.6,7.2-42.8,2.7-13.5,6-27,9.6-40.3a633.15,633.15,0,0,1,27.7-80.2l-.1.2.1-.2.3-.7-.3.7a649.68,649.68,0,0,1,36.5-72.7,636,636,0,0,1,46.8-69.2,674.13,674.13,0,0,1,53.1-60.2,648.22,648.22,0,0,1,61-53.8,659.42,659.42,0,0,1,67.2-45.4,639.8,639.8,0,0,1,74-37.2c12.4-5.2,24.9-10,37.5-14.5,13.3-4.7,26.8-8.9,40.4-12.6a625.76,625.76,0,0,1,83.6-17.1l-1.1.1c6.5-.9,13.1-1.7,19.6-2.4a3.63,3.63,0,0,0,2.8-1.2,4,4,0,0,0,0-5.7,4.2,4.2,0,0,0-2.6-1.2ZM359.7,270.3l-.3.2Zm-.5.4-.3.2ZM161.5,1020.6l.3.6Zm82.4,141.2.3.4Zm-82-635.4Z"/><path class="cls-3" d="M747.85,1427.43q-7.21,0-14.43-.16A653.46,653.46,0,0,1,562.54,147.67c19.4-5.63,38.66-10.37,57.3-14.1,17.3-3.37,34.65-6.09,51.73-8.12v-2l9.94,1a13.11,13.11,0,0,1,8.07,3.79,13,13,0,0,1,.2,18.23,12.67,12.67,0,0,1-8.74,4c-6.18.67-12.2,1.4-17.92,2.18v.05a618.12,618.12,0,0,0-82.4,16.85c-13.51,3.67-26.89,7.85-39.81,12.41s-25.19,9.35-37,14.31A632.42,632.42,0,0,0,431,233a653.23,653.23,0,0,0-66.28,44.78h0l0,0-.3.2v0l-.23.18,0,0-.3.2,0,0a641.22,641.22,0,0,0-59.3,52.39,668,668,0,0,0-52.37,59.38,629.72,629.72,0,0,0-46.12,68.2,642.82,642.82,0,0,0-35.7,71h0l-.28.65a626.23,626.23,0,0,0-27.31,79.06c-3.92,14.47-7,27.46-9.46,39.71-2.8,13.7-5.16,27.68-7,41.61h0a645.8,645.8,0,0,0-5.52,86.1,673.73,673.73,0,0,0,5.62,82A627.36,627.36,0,0,0,142.79,939c4.13,14.87,8.54,29,13.11,42.08,4.45,12.55,8.92,24.17,13.66,35.45h0l.3.6,0,0,.38.89h0a621.25,621.25,0,0,0,36.48,72.54A640.91,640.91,0,0,0,251,1156.48l.1-.08.3.4-.1.07,0,0a650.82,650.82,0,0,0,51.57,58.77c11.2,11.2,20.72,20.19,29.93,28.26,10.64,9.31,21.27,18.12,31.6,26.17a635.38,635.38,0,0,0,69.48,46.71,649.86,649.86,0,0,0,70.72,35.31,640.44,640.44,0,0,0,78,26.9c15.07,4.06,28.77,7.29,41.84,9.85,12.81,2.54,25.92,4.73,39,6.52a638.9,638.9,0,0,0,169.09,0,629.76,629.76,0,0,0,81.81-16.76c14-3.89,27.53-8.1,40.1-12.51s25.17-9.24,37.69-14.5a622.08,622.08,0,0,0,73.61-37.15c12.16-7.21,22.94-14,32.93-20.8,11.46-7.81,22.52-15.81,32.86-23.78a635.79,635.79,0,0,0,59.23-52.14,653.68,653.68,0,0,0,48-53.66l.26-.31a12.69,12.69,0,0,1,9.57-4.27,13,13,0,0,1,13,13l0,.89a14.13,14.13,0,0,1-3.21,7.63,647.18,647.18,0,0,1-52.24,58,673.15,673.15,0,0,1-63,54.54,653.87,653.87,0,0,1-395.3,133.87Z"/><path class="cls-3" d="M687.4,132.8a636.24,636.24,0,0,0-133.1,26.9,4,4,0,0,0-2.7,5,3.85,3.85,0,0,0,4.8,2.7,644.32,644.32,0,0,1,106.4-23.8l-1.1.1c18-2.4,36.1-4.1,54.3-5,.8-1.9,1.5-3.8,2.4-5.6.4-.9.7-1.7,1.1-2.6-10.8.6-21.5,1.3-32.1,2.3Z"/><path class="cls-3" d="M555.35,176.55a12.93,12.93,0,0,1-12.4-9.38l0-.1a13.09,13.09,0,0,1,8.75-16,646.61,646.61,0,0,1,134.89-27.25c9.32-.88,19.33-1.6,32.44-2.33l14.7-.82-6,13.46c-.16.37-.31.72-.45,1.07-.21.5-.42,1-.65,1.54l-.17.37c-.48,1-.94,2.09-1.43,3.29-.24.59-.48,1.18-.73,1.77l-2.2,5.22-5.65.28c-17.12.85-34.75,2.46-52.44,4.78v0A637,637,0,0,0,559.1,176l-.22.07A12.82,12.82,0,0,1,555.35,176.55Z"/></g><g id="Calque_de_dessin-2" data-name="Calque de dessin-2"><path class="cls-3" d="M891.4,138.3C680.6,167.2,533.1,361.5,562,572.3A385,385,0,0,0,1036,894h.1l1.1-.3h.1c11.2-2.8,22.2-6.1,33.1-9.9l.2-.1,1.9-.7.2-.1c6.8-2.4,13.5-5.1,20.1-7.8a3,3,0,0,0,1-.4l.6-.2.8-.3h.1l.3-.2a3.55,3.55,0,0,0,.9-.4l1.6-.7.7-.3h.1l2.8-1.2.3-.1,1.6-.7h.1l2.7-1.3a3.65,3.65,0,0,0,1.8-2.4,4,4,0,0,0-2.8-4.9,4.25,4.25,0,0,0-3.1.4l-4.1,1.9-2.7,1.2c-.3.1-.5.2-.8.3l-1.7.7-1.1.5a3.55,3.55,0,0,0-.9.4l-1.3.5c-6.6,2.8-13.2,5.3-19.9,7.7-11.6,4.1-23.4,7.7-35.3,10.7l-.2.1a378.38,378.38,0,0,1-237.9-18.7,398,398,0,0,1-42.8-21.5,373.43,373.43,0,0,1-40.8-27.5,403,403,0,0,1-36-31.8,381.53,381.53,0,0,1-32.1-36.4,390.93,390.93,0,0,1-27.2-40.4A386.06,386.06,0,0,1,595.8,667a379.07,379.07,0,0,1-26.2-95.6A376,376,0,0,1,579,422.1a384.5,384.5,0,0,1,16.3-47.8l-.2.4.2-.5.2-.5-.2.4a399.76,399.76,0,0,1,22-43.9,387.41,387.41,0,0,1,27.4-40.8,403,403,0,0,1,31.8-36,386.62,386.62,0,0,1,36.6-32.2,401.59,401.59,0,0,1,40.1-27,379,379,0,0,1,43.2-21.7,372.49,372.49,0,0,1,48-16.5,365.41,365.41,0,0,1,48.7-9.9,377.46,377.46,0,0,1,149.2,9.9,372.43,372.43,0,0,1,109.6,49.8,4,4,0,0,0,5.5-1.4,4.19,4.19,0,0,0,.4-3.1,4,4,0,0,0-1.8-2.4,385.81,385.81,0,0,0-62-33.4,380.07,380.07,0,0,0-132.8-30.2c-5.9-.3-11.9-.4-17.8-.4a348.49,348.49,0,0,0-52,3.4ZM993.8,146h0ZM644.3,749.6l.4.5Zm67.9,68.3.5.4Zm377.5,49.8h0l-.8.3.8-.3Zm-197.2,26h0ZM595.5,374v0Z"/><path class="cls-3" d="M943.49,914.15a397.61,397.61,0,0,1-87.78-9.78,394.25,394.25,0,0,1,34.45-775h0a358.91,358.91,0,0,1,53.29-3.49c6.82,0,12.77.14,18.21.41a387.62,387.62,0,0,1,135.88,30.91,395.46,395.46,0,0,1,63.24,34,13,13,0,0,1,5.65,7.45,13.1,13.1,0,0,1-1.15,10.06l-.08.14a13,13,0,0,1-17.8,4.68l-.47-.29a363.41,363.41,0,0,0-107-48.61A366.62,366.62,0,0,0,894.3,155a358.55,358.55,0,0,0-47.51,9.66,364.37,364.37,0,0,0-46.88,16.11A371.76,371.76,0,0,0,757.73,202a393.89,393.89,0,0,0-39.16,26.37,379.59,379.59,0,0,0-35.71,31.42A395.47,395.47,0,0,0,651.78,295a380.24,380.24,0,0,0-26.71,39.78A393.44,393.44,0,0,0,603.83,377h0l-.28.7,0,0a377.83,377.83,0,0,0-15.92,46.68,364.89,364.89,0,0,0-9.17,145.72,362.26,362.26,0,0,0,46.76,135.4,383.06,383.06,0,0,0,25.87,38.55l.18-.14.4.5-.19.15.3.4a374.51,374.51,0,0,0,31.32,35.52,394.47,394.47,0,0,0,34.49,30.53l.16-.2.5.4-.16.2.2.16a366.64,366.64,0,0,0,39.78,26.81,390.13,390.13,0,0,0,41.8,21,371.86,371.86,0,0,0,46.6,16.08,365.13,365.13,0,0,0,46,9.45v-.26h.2V885a369,369,0,0,0,138.46-7.08l.18-.09,1-.24c11.37-2.87,23-6.39,34.5-10.46,7.3-2.62,13.37-5,19-7.34l-.08-.2.8-.3.07.17.57-.22a12.28,12.28,0,0,1,1.38-.6l1-.45,2.18-.88.38-.15,2.35-1,3.94-1.83a13.18,13.18,0,0,1,9.51-.92,13,13,0,0,1,9,15.67,12.75,12.75,0,0,1-6.18,8.13l-.46.24-4.55,2.19h-.27l-4.92,2c-.28.15-.54.28-.78.38L1098,883.2h-1.12a12.1,12.1,0,0,1-1.18.43c-6.16,2.52-12.73,5.17-19.51,7.58l-.15.07-2.71,1c-11.2,3.9-22.6,7.31-33.88,10.13l-2.18.57h-.22A396.66,396.66,0,0,1,943.49,914.15Z"/><path class="cls-3" d="M1153.1,201.9a4.13,4.13,0,0,0-.4,3.1,4.41,4.41,0,0,0,1.8,2.4c6.6,4.5,13,9.1,19.3,13.9a385.14,385.14,0,0,1,68.7,68.7c7.1,9.2,13.7,18.7,19.9,28.5l1.7,2.7a4,4,0,0,0,7.2-3.6c-.1-.1-.2-.3-.3-.4l-1.6-2.6-.5-.8-.1-.1a386.2,386.2,0,0,0-102.1-107.6c-2.7-1.9-5.4-3.8-8.1-5.6a3.29,3.29,0,0,0-1.9-.6,3.91,3.91,0,0,0-3.6,2Z"/><path class="cls-3" d="M1267.72,332.42a13,13,0,0,1-11.41-6.7l-1.53-2.43c-6.16-9.74-12.69-19.09-19.41-27.79a376.24,376.24,0,0,0-67.08-67.08c-6-4.58-12.17-9-18.76-13.51a13.45,13.45,0,0,1-5.45-7.32l-.06-.22a13.08,13.08,0,0,1,1.22-9.84l.21-.35A12.94,12.94,0,0,1,1157,190.9a12.23,12.23,0,0,1,6.6,2.11c2.78,1.85,5.56,3.81,8.25,5.7a393.45,393.45,0,0,1,104,109.3l.13.13,2.3,3.71.42.43.65,1.3a13,13,0,0,1-11.63,18.85Z"/><path class="cls-3" d="M1228.1,266.9a4,4,0,0,0-1.2,2.8,3.63,3.63,0,0,0,1.2,2.8c4.8,5.5,9.5,11.2,14,17a387.42,387.42,0,0,1,49.1,83.9c3.2,7.7,6.2,15.4,8.9,23.3l.2.5c.7,2.1,1.4,4.1,2.1,6.2a4,4,0,0,0,5,2.6,4,4,0,0,0,2.7-4.8c-.6-1.9-1.2-3.7-1.8-5.6v-.1l-.6-1.8v-.1A383.58,383.58,0,0,0,1234,266.8a3.57,3.57,0,0,0-2.7-1.2,4,4,0,0,0-2.9,1.2Z"/><path class="cls-3" d="M1306.16,415.21a12.79,12.79,0,0,1-6-1.5,13.06,13.06,0,0,1-6.31-7.47c-.34-1-.69-2-1-3s-.66-1.92-1-2.9l-.26-.69c-2.41-7-5.17-14.28-8.69-22.76A379,379,0,0,0,1235,295c-4.24-5.46-8.74-10.94-13.37-16.25a12.73,12.73,0,0,1-3.69-9,12.9,12.9,0,0,1,3.83-9.16l1.5-1.51.88-.29a13,13,0,0,1,7.19-2.14,12.57,12.57,0,0,1,9.47,4.27,390.69,390.69,0,0,1,75.43,129.77l.5,1.44v.16l.6,1.8v.16l.45,1.38c.31,1,.63,1.93.94,2.92l.17.62a13,13,0,0,1-8.74,15.46A12.88,12.88,0,0,1,1306.16,415.21Z"/></g><g id="Bec"><path class="cls-2" d="M1415.7,348.8,1251.4,431l-1.7.8a4.73,4.73,0,0,0-1.7,6.5,4.42,4.42,0,0,0,2.8,2.2,5.37,5.37,0,0,0,3.7-.5l164.3-82.2,1.7-.8a4.73,4.73,0,0,0,1.7-6.5,4.42,4.42,0,0,0-2.8-2.2,5,5,0,0,0-1.2-.2,5.2,5.2,0,0,0-2.5.7Z"/><path class="cls-2" d="M1251.92,449.63a13.63,13.63,0,0,1-3.31-.4,13.47,13.47,0,0,1-8.49-6.56,13.77,13.77,0,0,1,5.14-18.71l.6-.31,1.6-.75,164-82.07a14.09,14.09,0,0,1,6.7-1.74,13.87,13.87,0,0,1,11.87,7,13.77,13.77,0,0,1-5.14,18.71l-.6.31-1.6.75L1258.53,448A14.79,14.79,0,0,1,1251.92,449.63Z"/><path class="cls-2" d="M1415,350.3c-7,8.6-14,17.1-21,25.7l-.1.1-73,91-27.6,34.4-.2.2-13.2,16.5-1.8,2.2a4.81,4.81,0,0,0,6.8,6.8l15-18.8,3.5-4.4,64.4-80.3,32.7-40.8.2-.2,16.5-20.6,4.1-5.1a4.76,4.76,0,0,0-3.9-8.1A5.44,5.44,0,0,0,1415,350.3Z"/><path class="cls-2" d="M1281.5,537.6a13.81,13.81,0,0,1-10.15-23.16l1.56-1.9,13.68-17.05L1387.3,370q5.12-6.28,10.23-12.52,5.24-6.4,10.48-12.83l.61-.75.81-.65a13.4,13.4,0,0,1,6.35-3.17l.54-.08a13.62,13.62,0,0,1,10.38,3.28,14,14,0,0,1,5,10v.35a14.14,14.14,0,0,1-3.56,9.26l-20.93,26.06-32.39,40.41-64.4,80.3-18.8,23.58-.36.36A13.72,13.72,0,0,1,1281.5,537.6Z"/></g><g id="Calque_7" data-name="Calque 7"><circle class="cls-4" cx="1036.98" cy="398.51" r="63.7" transform="translate(-69.5 497.66) rotate(-26.14)"/><path class="cls-3" d="M1037.09,467.7a69.2,69.2,0,0,1-30.6-131.31h0a69.2,69.2,0,1,1,30.6,131.31Zm-25.75-121.44a58.2,58.2,0,1,0,77.89,26.6,58.27,58.27,0,0,0-77.89-26.6Z"/><path class="cls-3" d="M1054.7,455.3a69.2,69.2,0,1,1,69.2-69.2A69.28,69.28,0,0,1,1054.7,455.3Zm0-127.4a58.2,58.2,0,1,0,58.2,58.2A58.27,58.27,0,0,0,1054.7,327.9Z"/></g></g></svg>