<svg id="Calque_1" data-name="Calque 1" xmlns="http://www.w3.org/2000/svg" viewBox="0 0 5542.4 1504.3"><defs><style>.cls-1{fill:#afb42b;}.cls-2{fill:#fff;}.cls-3{fill:#9ba346;}</style></defs><title>V10-NAO-NOM</title><g id="Calque_10" data-name="Calque 10"><rect class="cls-1" width="5542.4" height="1504.3"/></g><g id="Calque_6" data-name="Calque 6"><path class="cls-1" d="M200.2,889.1s-160,305.3,0,471"/><path class="cls-2" d="M185.81,1374c-39.47-40.88-64-92.87-72.91-154.53-7-48.24-4.37-102.42,7.71-161C140.95,959.77,180.8,883,182.49,879.82l35.43,18.57L200.2,889.1l17.72,9.28c-.39.75-39.22,75.67-58.31,169-11,53.91-13.4,103.31-7,146.82,7.73,53,28.6,97.4,62,132Z"/><rect class="cls-2" x="187.7" y="1334.05" width="212.3" height="40" transform="translate(-1.92 0.42) rotate(-0.08)"/><circle class="cls-1" cx="2763" cy="356.4" r="226.4"/><path class="cls-2" d="M2763,602.8a246.4,246.4,0,1,1,174.23-72.17A244.79,244.79,0,0,1,2763,602.8Zm0-452.8c-113.81,0-206.4,92.59-206.4,206.4s92.59,206.4,206.4,206.4,206.4-92.59,206.4-206.4S2876.81,150,2763,150Z"/><rect class="cls-2" x="3009.65" y="414.98" width="40" height="186.43" transform="translate(226 1763.81) rotate(-33.65)"/><circle class="cls-1" cx="2180.9" cy="1124.4" r="226.4"/><path class="cls-2" d="M2180.9,1370.8a246.4,246.4,0,1,1,174.23-72.17A244.79,244.79,0,0,1,2180.9,1370.8Zm0-452.8c-113.81,0-206.4,92.59-206.4,206.4s92.59,206.4,206.4,206.4,206.4-92.59,206.4-206.4S2294.71,918,2180.9,918Z"/><rect class="cls-2" x="2314.47" y="986.15" width="185.75" height="40" transform="translate(-198.39 1139.57) rotate(-25.61)"/><circle cx="2652.6" cy="916.4" r="20.7"/><path class="cls-2" d="M2652.6,957.1a40.7,40.7,0,1,1,40.7-40.7A40.75,40.75,0,0,1,2652.6,957.1Zm0-41.4a.7.7,0,1,0,.7.7A.7.7,0,0,0,2652.6,915.7Z"/><rect class="cls-2" x="4272.45" y="1179.17" width="40" height="186.35" transform="translate(14.56 2592.81) rotate(-33.66)"/><path class="cls-1" d="M3306.9,1118.7c.4,7.3,3.5,99.7-64.9,165.9-42.8,41.4-93.5,53.2-117.8,58.8-38.1,8.8-61.1,5.9-125.5,4.1-38.6-1.1-95.6-1.9-166.5.2,112-105.2,133.5-187.2,129.4-245.4-4.9-69.1-46.6-113.9-21.1-158.5,32.1-56.2,135-49.5,140.9-49C3188.3,903.2,3300.8,998.9,3306.9,1118.7Z"/><path class="cls-2" d="M3067.78,1369.43c-11.76,0-24.62-.45-39.94-1-8.76-.3-18.69-.65-29.7-1-53.66-1.53-109.29-1.46-165.35.2l-52.75,1.56,38.47-36.13c49.09-46.11,84-91.23,103.77-134.12,15.23-33,21.56-64.21,19.38-95.3-1.79-25.17-9-46.94-15.95-68-11-33.12-22.28-67.36-2.56-101.84,38.91-68.12,154-59.5,159.88-59,57.37,4.52,116.66,32.07,162.67,75.58,49.22,46.54,78.05,105.92,81.18,167.21.18,3.27,1.34,31-7.17,66.57-10.8,45.13-32.86,84.82-63.79,114.75-47,45.42-103.2,58.38-127.22,63.92C3106.72,1368,3089.07,1369.43,3067.78,1369.43Zm-148-43c26.83,0,53.36.37,79.44,1.11,11.13.31,21.13.66,30,1,42.22,1.46,61.49,2.13,90.47-4.56,22.54-5.2,69.44-16,108.4-53.69,63-60.94,59-146.81,58.84-150.43v-.08c-2.59-51-27-100.76-68.72-140.21-39.51-37.36-89.94-61-138.38-64.77h-.12a250.13,250.13,0,0,0-55.52,3c-23.18,4-53.5,13.53-66.33,36-10.36,18.13-4.84,37.23,5.81,69.43,7.38,22.3,15.73,47.57,17.87,77.73,2.64,37.46-5.08,76.1-22.95,114.86-16.67,36.18-42.59,73.34-77.28,110.9Q2900.65,1326.39,2919.83,1326.39Z"/><path class="cls-1" d="M3093.3,1321.9l10.5,53-238.6-7.2,48.3-47.8Z"/><path class="cls-1" d="M3128.3,1395.65,2818,1386.28l87.38-86.48,204.39,2.27Zm-215.89-46.53,166.89,5-2.46-12.43L2921.63,1340Z"/><circle class="cls-1" cx="3480" cy="354.7" r="226.4"/><path class="cls-2" d="M3480,601.1a246.4,246.4,0,1,1,174.23-72.17A244.79,244.79,0,0,1,3480,601.1Zm0-452.8c-113.81,0-206.4,92.59-206.4,206.4s92.59,206.4,206.4,206.4,206.4-92.59,206.4-206.4S3593.81,148.3,3480,148.3Z"/><circle class="cls-1" cx="3935.7" cy="346.7" r="226.4"/><path class="cls-2" d="M3935.7,593.1a246.4,246.4,0,1,1,174.23-72.17A244.79,244.79,0,0,1,3935.7,593.1Zm0-452.8c-113.81,0-206.4,92.59-206.4,206.4s92.59,206.4,206.4,206.4,206.4-92.59,206.4-206.4S4049.51,140.3,3935.7,140.3Z"/><rect class="cls-1" x="3241.6" y="383" width="935.6" height="275.4"/><path class="cls-3" d="M4177.7,658.9H3241.1V382.5h936.6Zm-935.6-1h934.6V383.5H3242.1Z"/><rect class="cls-2" x="3233.5" y="104.3" width="40" height="500.9"/><rect class="cls-2" x="3688.6" y="363.7" width="40" height="241.5"/><rect class="cls-2" x="4143.6" y="363.7" width="40" height="241.5"/><rect class="cls-2" x="2632.6" y="980" width="40" height="388.1"/><path class="cls-1" d="M5049.8,355.5c.4,7.3,3.5,99.7-64.9,165.9-42.8,41.4-93.5,53.2-117.8,58.8-38.1,8.8-61.1,5.9-125.5,4.1-38.6-1.1-95.6-1.9-166.5.2,112-105.2,133.5-187.2,129.4-245.4-4.9-69.1-46.6-113.9-21-158.5,32.1-56.2,135-49.5,140.9-49C4931.2,139.9,5043.7,235.6,5049.8,355.5Z"/><path class="cls-2" d="M4810.68,606.23c-11.76,0-24.63-.45-39.95-1-8.76-.3-18.69-.65-29.69-1-53.66-1.53-109.28-1.46-165.35.2l-52.75,1.56,38.47-36.13c49.09-46.11,84-91.23,103.77-134.12,15.23-33,21.57-64.21,19.38-95.3-1.78-25.14-9-46.9-15.92-67.93-11-33.15-22.28-67.42-2.47-101.93,38.86-68,153.84-59.48,159.85-59,57.33,4.47,116.59,32,162.6,75.51,49.22,46.55,78,106,81.17,167.31.18,3.38,1.32,31-7.17,66.54-10.8,45.13-32.86,84.82-63.79,114.75-47,45.42-103.2,58.38-127.22,63.92C4849.62,604.76,4832,606.23,4810.68,606.23Zm-147.95-43c26.82,0,53.36.37,79.44,1.11,11.13.31,21.13.66,30,1,42.22,1.47,61.49,2.13,90.48-4.56,22.54-5.2,69.43-16,108.4-53.69,63-60.94,59-146.81,58.83-150.43v-.08c-2.59-51-27-100.83-68.71-140.29-39.49-37.35-89.89-60.93-138.27-64.69h-.14a250.3,250.3,0,0,0-55.52,3c-23.18,4-53.51,13.53-66.33,36-10.43,18.16-4.91,37.28,5.74,69.5,7.36,22.28,15.71,47.53,17.84,77.66,2.64,37.46-5.08,76.1-22.95,114.86-16.67,36.18-42.59,73.34-77.28,110.9Q4643.56,563.19,4662.73,563.19Z"/><path class="cls-1" d="M4828.5,563.1l12.8,55.7L4622.4,611l-47.4-1.7,51.9-45.5,31.9-1.9Z"/><path class="cls-3" d="M4841.93,619.32l-.65,0-218.9-7.8-48.66-1.75,53-46.44,32.07-1.91,170.13,1.2Zm-265.66-10.48,46.14,1.66,218.25,7.78L4828.1,563.6l-169.31-1.2-31.69,1.89Z"/><circle class="cls-1" cx="400" cy="348.1" r="226.4"/><path class="cls-2" d="M400,594.5a246.4,246.4,0,1,1,174.23-72.17A244.79,244.79,0,0,1,400,594.5Zm0-452.8c-113.81,0-206.4,92.59-206.4,206.4S286.19,554.5,400,554.5s206.4-92.59,206.4-206.4S513.81,141.7,400,141.7Z"/><rect class="cls-1" x="105.9" y="367.1" width="520.5" height="249.4"/><path class="cls-3" d="M626.9,617H105.4V366.6H626.9Zm-520.5-1H625.9V367.6H106.4Z"/><rect class="cls-2" x="153.5" y="97.9" width="40" height="500.1"/><rect class="cls-2" x="606.4" y="345" width="40" height="252.2"/><circle class="cls-1" cx="1003.6" cy="349.8" r="226.4"/><path class="cls-2" d="M1003.6,596.2A246.4,246.4,0,1,1,1177.83,524,244.79,244.79,0,0,1,1003.6,596.2Zm0-452.8c-113.81,0-206.4,92.59-206.4,206.4s92.59,206.4,206.4,206.4S1210,463.61,1210,349.8,1117.41,143.4,1003.6,143.4Z"/><rect class="cls-2" x="1137.17" y="211.45" width="185.66" height="40" transform="translate(20.89 554.74) rotate(-25.63)"/><path class="cls-1" d="M1833,347.6c.4,7.3,3.5,99.7-64.9,165.9-42.8,41.4-93.5,53.2-117.8,58.8-38.1,8.8-61.1,5.9-125.5,4.1-38.6-1.1-95.7-1.9-166.5.2,112-105.2,133.5-187.2,129.4-245.4-4.9-69.1-46.6-113.9-21.1-158.5,32.1-56.2,135-49.5,140.9-49C1714.4,132,1827,227.7,1833,347.6Z"/><path class="cls-2" d="M1593.88,598.33c-11.76,0-24.63-.45-39.95-1-8.76-.3-18.69-.65-29.69-1-53.69-1.53-109.31-1.46-165.35.2l-52.75,1.56L1344.61,562c49.09-46.11,84-91.23,103.77-134.12,15.23-33,21.57-64.21,19.38-95.3-1.78-25.17-9-46.94-15.95-68-11-33.11-22.28-67.36-2.56-101.84,38.93-68.16,154.16-59.48,159.89-59,57.37,4.48,116.67,32,162.7,75.5,49.25,46.56,78.07,106,81.15,167.31.18,3.37,1.32,31-7.17,66.54-10.8,45.13-32.86,84.82-63.79,114.76-47,45.42-103.2,58.38-127.22,63.92C1632.82,596.86,1615.17,598.33,1593.88,598.33Zm-148-43c26.83,0,53.37.37,79.46,1.12,11.13.31,21.13.66,29.95,1,42.22,1.47,61.49,2.13,90.48-4.56,22.54-5.19,69.43-16,108.4-53.69,63-60.95,59-146.81,58.83-150.43v-.09c-2.55-51-26.94-100.81-68.68-140.27-39.52-37.35-90-60.93-138.4-64.69h-.14a250.22,250.22,0,0,0-55.52,3c-23.18,4-53.51,13.53-66.33,36-10.36,18.12-4.84,37.23,5.81,69.43,7.38,22.3,15.73,47.57,17.87,77.73,2.64,37.46-5.08,76.1-22.95,114.86-16.67,36.18-42.59,73.34-77.28,110.9Q1426.74,555.29,1445.91,555.29Z"/><path class="cls-1" d="M1616.3,555.7l8.2,55.3-263.8-13.1,55.3-51.5Z"/><path class="cls-3" d="M1625.08,611.53l-265.59-13.19,56.32-52.45,200.92,9.33Zm-263.18-14.07,262,13-8.05-54.29-199.68-9.27Z"/><circle class="cls-1" cx="728.7" cy="1125.6" r="226.4"/><path class="cls-2" d="M728.7,1372a246.4,246.4,0,1,1,174.23-72.17A244.79,244.79,0,0,1,728.7,1372Zm0-452.8c-113.81,0-206.4,92.59-206.4,206.4S614.89,1332,728.7,1332s206.4-92.59,206.4-206.4S842.51,919.2,728.7,919.2Z"/><rect class="cls-1" x="729.5" y="809.5" width="250.9" height="592.2"/><path class="cls-1" d="M1000.4,1421.7H709.5V789.5h290.9Zm-250.9-40H960.4V829.5H749.5Z"/><rect class="cls-2" x="499.1" y="1103" width="229.6" height="40"/><path class="cls-1" d="M1465.5,1123.1c.4,7.3,3.5,99.7-64.9,165.9-42.8,41.4-93.5,53.2-117.8,58.8-38.1,8.8-61.1,5.9-125.5,4.1-38.6-1.1-95.7-1.9-166.5.2,112-105.2,133.5-187.2,129.4-245.4-4.9-69.1-46.6-113.9-21.1-158.5,32.1-56.2,135-49.5,140.9-49C1346.9,907.5,1459.4,1003.2,1465.5,1123.1Z"/><path class="cls-2" d="M1226.38,1373.83c-11.76,0-24.63-.45-39.95-1-8.76-.3-18.69-.65-29.69-1-53.68-1.53-109.31-1.46-165.35.2l-52.75,1.56,38.47-36.13c49.09-46.11,84-91.23,103.77-134.12,15.23-33,21.57-64.21,19.38-95.3-1.78-25.17-9-46.94-15.95-68-11-33.12-22.28-67.36-2.56-101.84,38.93-68.16,154.16-59.48,159.89-59,57.36,4.48,116.65,32,162.66,75.5,49.22,46.54,78.05,106,81.18,167.28.18,3.27,1.34,31-7.17,66.57-10.8,45.13-32.86,84.82-63.79,114.75-47,45.42-103.2,58.38-127.22,63.92C1265.32,1372.36,1247.66,1373.83,1226.38,1373.83Zm-148-43c26.83,0,53.38.37,79.48,1.12,11.13.31,21.13.66,29.95,1,42.22,1.47,61.49,2.13,90.48-4.56,22.54-5.19,69.43-16,108.4-53.69,63-60.95,59-146.81,58.83-150.43v-.08c-2.6-51-27-100.84-68.72-140.28-39.5-37.35-89.93-60.93-138.36-64.69h-.14a250.21,250.21,0,0,0-55.52,3c-23.18,4-53.51,13.53-66.33,36-10.36,18.12-4.84,37.23,5.81,69.43,7.38,22.3,15.73,47.57,17.87,77.73,2.64,37.46-5.08,76.1-22.95,114.86-16.67,36.18-42.59,73.34-77.28,110.9Q1059.23,1330.79,1078.39,1330.79Z"/><path class="cls-1" d="M1245,1329.5l12,56.9-242.5-5,50.3-48.3Z"/><path class="cls-1" d="M1281.77,1406.92l-315.93-6.51,90.75-87.14,204.57-4.09Zm-218.6-44.52,169.07,3.49-3.39-16.06L1073,1352.94Z"/><circle cx="4361.8" cy="150.7" r="20.7"/><path class="cls-2" d="M4361.8,191.4a40.7,40.7,0,1,1,40.7-40.7A40.75,40.75,0,0,1,4361.8,191.4Zm0-41.4a.7.7,0,1,0,.7.7A.7.7,0,0,0,4361.8,150Z"/><rect class="cls-2" x="4341.8" y="223.3" width="40" height="381.9"/><rect class="cls-2" x="709.1" y="879.95" width="89" height="40.1"/><rect class="cls-2" x="709" y="1331.25" width="88.9" height="40.1"/><circle class="cls-1" cx="3650.2" cy="1119.7" r="226.4"/><path class="cls-2" d="M3650.2,1366.1a246.4,246.4,0,1,1,174.23-72.17A244.79,244.79,0,0,1,3650.2,1366.1Zm0-452.8c-113.81,0-206.4,92.59-206.4,206.4s92.59,206.4,206.4,206.4,206.4-92.59,206.4-206.4S3764,913.3,3650.2,913.3Z"/><rect class="cls-1" x="3651" y="803.5" width="250.9" height="592.2"/><path class="cls-1" d="M3921.9,1415.7H3631V783.5h290.9Zm-250.9-40h210.9V823.5H3671Z"/><rect class="cls-2" x="3420.6" y="1097" width="229.6" height="40"/><rect class="cls-2" x="3630.6" y="873.95" width="89" height="40.1"/><rect class="cls-2" x="3630.4" y="1325.25" width="89" height="40.1"/><circle class="cls-1" cx="4989.1" cy="1121.7" r="226.4"/><path class="cls-2" d="M4989.1,1368.1a246.4,246.4,0,1,1,174.23-72.17A244.78,244.78,0,0,1,4989.1,1368.1Zm0-452.8c-113.81,0-206.4,92.59-206.4,206.4s92.59,206.4,206.4,206.4,206.4-92.59,206.4-206.4S5102.91,915.3,4989.1,915.3Z"/><rect class="cls-1" x="4742.3" y="761.6" width="246.8" height="664.8"/><path class="cls-1" d="M5009.1,1446.4H4722.3V741.6h286.8Zm-246.8-40h206.8V781.6H4762.3Z"/><path class="cls-1" d="M5215.5,1122.1c0,125.1,101.4,226.4,226.4,226.4V895.7C5316.9,895.7,5215.5,997.1,5215.5,1122.1Z"/><path class="cls-2" d="M5461.9,1368.5h-20a246.39,246.39,0,0,1-246.4-246.4c0-135.87,110.54-246.4,246.4-246.4h20Zm-40-451.84c-104.46,10.09-186.4,98.37-186.4,205.44a206.42,206.42,0,0,0,186.4,205.45Z"/><path class="cls-1" d="M5442,789.5V895.7c41.8,0,75.6,101.4,75.6,226.4s-33.9,226.4-75.6,226.4v105.8h80.2V789.5Z"/><path class="cls-1" d="M5542.2,1474.3H5422V1328.5h20c6.78,0,21.56-14,34.47-52.66,13.63-40.79,21.13-95.39,21.13-153.74s-7.49-113-21.1-153.74c-12.89-38.63-27.7-52.66-34.5-52.66h-20V769.5h120.2Zm-80.2-40h40.2V1318.67c-12.91,26.14-27.12,39.32-40.2,45.36Zm0-554.14c13.08,6,27.3,19.19,40.2,45.28V809.5H5462Z"/><path class="cls-1" d="M5498.6,1122.1c0-125.1-25.4-226.4-56.7-226.4v452.9C5473.2,1348.6,5498.6,1247.2,5498.6,1122.1Z"/><path class="cls-1" d="M5441.9,1368.6h-20V875.7h20c19,0,31.82,15,39.27,27.59,7.74,13.06,14.54,31.17,20.22,53.84,11.1,44.3,17.21,102.89,17.21,165s-6.11,120.69-17.21,165c-5.68,22.67-12.48,40.8-20.21,53.87C5473.72,1353.58,5460.86,1368.6,5441.9,1368.6Zm20-404.45v316q1.5-5.8,3-12.45c8.85-40,13.72-91.7,13.72-145.55s-4.87-105.52-13.72-145.51Q5463.41,969.93,5461.9,964.15Z"/><circle class="cls-1" cx="4025.9" cy="1120.6" r="226.4"/><path class="cls-2" d="M4025.9,1367a246.4,246.4,0,1,1,174.23-72.17A244.79,244.79,0,0,1,4025.9,1367Zm0-452.8c-113.81,0-206.4,92.59-206.4,206.4s92.59,206.4,206.4,206.4,206.4-92.59,206.4-206.4S4139.71,914.2,4025.9,914.2Z"/><circle class="cls-1" cx="4660.8" cy="1121.2" r="226.4"/><path class="cls-2" d="M4660.8,1367.6A246.4,246.4,0,1,1,4835,1295.43,244.78,244.78,0,0,1,4660.8,1367.6Zm0-452.8c-113.81,0-206.4,92.59-206.4,206.4s92.59,206.4,206.4,206.4,206.4-92.59,206.4-206.4S4774.61,914.8,4660.8,914.8Z"/><rect class="cls-1" x="4453.7" y="765.8" width="411.6" height="328.1"/><path class="cls-1" d="M4885.3,1113.9H4433.7V745.8h451.6Zm-411.6-40h371.6V785.8H4473.7Z"/><rect class="cls-2" x="4414.3" y="874.6" width="40" height="239.7"/><rect class="cls-2" x="4867.2" y="874.6" width="40" height="239.7"/></g></svg>